<svg width="360" height="310" viewBox="0 0 360 310" fill="none" xmlns="http://www.w3.org/2000/svg">
<path fill-rule="evenodd" clip-rule="evenodd" d="M227 263.258V231.754C227 205.521 205.734 184.254 179.5 184.254C153.266 184.254 132 205.521 132 231.754V263.547L60.9153 303.403C50.1446 309.285 40.0763 311.095 30.7105 308.833C21.3447 306.118 13.3838 299.556 6.82768 289.149C-5.81617 266.976 -0.899121 249.781 21.5788 237.563L102.219 192.627L21.5788 148.647C10.3399 141.859 3.54964 133.714 1.20819 124.212C-0.664974 114.709 1.20819 105.433 6.82768 96.3829C13.3838 85.0704 21.5788 78.5091 31.4129 76.699C41.247 74.889 51.0812 76.9253 60.9153 82.8078L140.291 127.312V38.0102C140.291 12.6701 153.637 0 180.329 0C206.085 0 218.963 12.6701 218.963 38.0102V127.431L299.041 82.8078C321.051 70.5903 338.846 75.1153 352.426 96.3829C366.007 118.103 361.324 135.524 338.378 148.647L257.737 192.627L338.378 237.563C361.324 250.234 366.007 267.429 352.426 289.149C338.846 310.869 321.051 315.62 299.041 303.403L227 263.258Z" fill="#1E1E1E"/>
</svg>
